<svg width="1024" height="1024" viewBox="0 0 1024 1024" xmlns="http://www.w3.org/2000/svg">
  <circle cx="512" cy="512" r="460" fill="#2563eb" stroke="#1d4ed8" stroke-width="48"/>
  <path d="M360 360c0-31.2 25.3-56.5 56.5-56.5h56.5c31.2 0 56.5 25.3 56.5 56.5v304c0 31.2-25.3 56.5-56.5 56.5h-56.5c-31.2 0-56.5-25.3-56.5-56.5V360z" fill="#ffffff"/>
  <path d="M552 392c0-31.2 25.3-56.5 56.5-56.5h56.5c31.2 0 56.5 25.3 56.5 56.5v240c0 31.2-25.3 56.5-56.5 56.5h-56.5c-31.2 0-56.5-25.3-56.5-56.5V392z" fill="#ffffff"/>
  <path d="M512 720c-28-28-112-84-112-168 0-42 28-84 84-84s84 42 84 84c0 84-84 140-112 168z" fill="#ef4444"/>
</svg>
